<svg width="384" height="384" viewBox="0 0 384 384" fill="none" xmlns="http://www.w3.org/2000/svg">
<g clip-path="url(#clip0_207_9)">
<path d="M0 248.502H22.4626C22.4626 252.546 22.4422 256.242 22.4659 259.938C22.6464 288.16 43.699 312.36 71.0579 315.805C100.081 319.46 126.456 301.755 133.521 273.602C134.722 268.819 134.934 263.764 135.339 258.813C135.603 255.602 135.389 252.351 135.389 248.84H157.598C159.212 270.709 154.809 290.771 141.146 308.263C132.147 320.023 119.927 328.918 105.969 333.866C103.297 334.816 102.729 336.202 102.749 338.764C102.855 352.478 102.805 366.194 102.789 379.908C102.787 381.272 102.648 382.636 102.573 384H54.6555C54.7307 368.919 54.7254 353.836 54.952 338.757C54.9951 335.892 54.0117 334.759 51.4053 333.734C26.3066 323.86 10.0461 305.927 2.6236 279.935C1.44187 275.783 0.85947 271.461 0 267.217V248.502Z" fill="white"/>
<path d="M383.155 107.623V240.085H191.942V0.946289H276.184V107.623L383.155 107.623ZM347.2 133.477H227.938V155.482H347.2V133.477ZM347.221 181.41H227.828V203.371H347.221L347.221 181.41ZM251.4 37.6818H227.815V59.6342H251.4L251.4 37.6818ZM251.39 85.5832H227.936V107.555H251.39L251.39 85.5832Z" fill="white"/>
<path d="M112.965 248.63C112.649 254.597 112.992 260.689 111.894 266.508C108.772 283.059 94.2621 294.155 77.3941 293.545C61.1229 292.957 47.2488 280.778 45.669 264.28C44.6667 253.735 44.6856 243.119 45.7255 232.578C47.4327 215.355 62.8348 203.033 80.388 203.617C88.6264 203.966 96.4476 207.337 102.359 213.086C108.27 218.835 111.857 226.56 112.436 234.785C112.737 239.376 112.482 244.004 112.482 248.615L112.965 248.63Z" fill="white"/>
<path d="M157.833 46.1496V68.2232H153.78C140.679 68.2233 127.578 68.2032 114.477 68.2288C99.6457 68.2578 90.1576 77.7093 90.0766 92.5531C90.0285 101.367 90.0678 110.182 90.0678 118.996L91.1615 119.76C93.7938 116.384 96.426 113.008 98.8842 109.854L114.828 125.845C102.929 137.738 90.7166 149.944 78.7659 161.889L42.9248 126.029C47.6221 121.32 52.769 116.159 58.3128 110.6L66.5633 119.5L67.4339 119.065C67.4911 117.77 67.5846 116.475 67.5999 115.179C67.7119 105.702 67.2045 96.1726 68.0296 86.7591C68.8883 75.8788 73.7281 65.6969 81.6233 58.1613C89.5185 50.6257 99.9147 46.2654 110.823 45.9144C126.024 45.3474 141.264 45.7957 156.486 45.804C156.946 45.873 157.397 45.9888 157.833 46.1496Z" fill="white"/>
<path d="M185.307 328.255C197.757 315.803 209.997 303.56 222.027 291.528L237.738 307.26L227.902 315.749C239.076 315.749 249.426 316.619 259.553 315.493C268.811 314.463 275.77 305.525 276.378 296.038C276.816 289.208 276.571 282.334 276.649 275.48C276.664 274.146 276.763 272.814 276.83 271.323H298.359C298.562 271.548 298.868 271.728 298.869 271.909C298.912 283.829 300.587 295.888 296.922 307.549C294.016 316.645 288.298 324.585 280.592 330.225C272.886 335.864 263.588 338.913 254.039 338.932C245.692 339.019 237.344 338.946 228.148 338.946C231.865 342.177 235.058 344.951 237.982 347.492C231.817 353.638 226.652 358.788 221.344 364.079C220.835 363.601 219.916 362.78 219.044 361.91C207.665 350.568 196.294 339.218 185.307 328.255Z" fill="white"/>
<path d="M370.508 85.118H298.928V13.5781L370.508 85.118Z" fill="white"/>
</g>
<defs>
<clipPath id="clip0_207_9">
<rect width="384" height="384" fill="white"/>
</clipPath>
</defs>
</svg>
