<svg xmlns="http://www.w3.org/2000/svg" viewBox="0 0 384 384"><defs><style>.cls-1{fill:#fff;}</style></defs><title>Asset 1</title><g id="Layer_2" data-name="Layer 2"><g id="Layer_1-2" data-name="Layer 1"><path class="cls-1" d="M0,248.502V0H383.99506q0,191.96415.00494,384H102.57272c.07523-1.36389.21421-2.72773.21583-4.09173.01628-13.71473.066-27.42992-.04-41.14385-.0198-2.56189.549-3.94878,3.22092-4.89816a76.469,76.469,0,0,0,35.17641-25.60313c13.66328-17.49233,18.06569-37.55449,16.45257-59.42339H135.389c0,3.51161.21372,6.76221-.04954,9.9737-.40585,4.95075-.61783,10.00534-1.81819,14.78854-7.06512,28.15324-33.44061,45.85847-62.46339,42.20334-27.35885-3.44557-48.41149-27.64551-48.592-55.86726-.02364-3.69586-.00324-7.392-.00324-11.43607ZM383.15478,107.62285H276.18348V.94586H191.94187v239.139H383.15478ZM112.96489,248.63l-.48317-.0149c0-4.61106.25544-9.23889-.04563-13.83021a33.5536,33.5536,0,0,0-32.04793-31.16859c-17.55322-.58364-32.95528,11.738-34.66249,28.96183a164.41373,164.41373,0,0,0-.05656,31.70124c1.5798,16.49854,15.454,28.67726,31.72513,29.26552,16.868.60984,31.37792-10.48636,34.49986-27.03681C112.99188,260.68838,112.64962,254.59717,112.96489,248.63Zm44.868-202.48007a6.82244,6.82244,0,0,0-1.34713-.34558c-15.22221-.00836-30.46141-.45669-45.66266.11035A44.35763,44.35763,0,0,0,68.02947,86.75938c-.82507,9.41351-.3177,18.94338-.4297,28.42018-.01531,1.29571-.10875,2.59052-.166,3.88573l-.87056.43486-8.25049-8.89948c-5.54378,5.55857-10.69069,10.71919-15.388,15.429l35.84112,35.85942c11.95063-11.94464,24.16284-24.15069,36.06182-36.04367L98.88407,109.85479c-2.45814,3.15308-5.09039,6.52952-7.72265,9.906l-1.09374-.76445c0-8.81432-.0393-17.62886.00881-26.44292.081-14.84379,9.56912-24.29536,24.40054-24.32432,13.101-.02558,26.20218-.0055,39.30326-.00558h4.05262Zm27.4735,282.10527c10.98727,10.96274,22.35877,22.31227,33.73708,33.655.87186.86916,1.79154,1.69035,2.30065,2.16883,5.3075-5.29161,10.47241-10.44108,16.63742-16.58767-2.92347-2.54039-6.11644-5.315-9.83376-8.54525,9.19642,0,17.54444.07249,25.89079-.01453a45.11108,45.11108,0,0,0,42.88309-31.38325c3.665-11.66046,1.99019-23.71918,1.947-35.63908-.00067-.18133-.3065-.36151-.50969-.5862H276.83012c-.06734,1.49027-.16616,2.82307-.18135,4.1568-.07794,6.8541.16654,13.72775-.27108,20.55807-.60789,9.48731-7.56664,18.42489-16.82511,19.45466-10.12725,1.12641-20.47666.25624-31.65088.25624l9.836-8.48894-15.71145-15.73173Q203.93894,309.619,185.30641,328.25515ZM370.50769,85.11776,298.92805,13.57787V85.11776Z"/><path d="M0,248.502H22.46264c0,4.044-.0204,7.74021.00324,11.43607.18052,28.22175,21.23316,52.42169,48.592,55.86726,29.02278,3.65513,55.39827-14.0501,62.46339-42.20334,1.20036-4.7832,1.41234-9.83779,1.81819-14.78854.26326-3.21149.04954-6.46209.04954-9.9737h22.20948c1.61312,21.8689-2.78929,41.93106-16.45257,59.42339a76.469,76.469,0,0,1-35.17641,25.60313c-2.672.94938-3.24072,2.33627-3.22092,4.89816.106,13.71393.05624,27.42912.04,41.14385-.00162,1.364-.1406,2.72784-.21583,4.09173H54.65554c.07519-15.08136.06986-30.16391.2965-45.243.04306-2.865-.94033-3.99777-3.54678-5.02315Q13.75733,318.923,2.6236,279.93476C1.44187,275.783.85947,271.46066,0,267.21718Z"/><path class="cls-1" d="M0,267.21718c.85947,4.24348,1.44187,8.56581,2.6236,12.71758q11.07617,38.914,48.78166,53.79911c2.60645,1.02538,3.58984,2.15819,3.54678,5.02315-.22664,15.07907-.22131,30.16162-.2965,45.243H0Z"/><path d="M383.15478,107.62285v132.462H191.94187V.94586h84.24161v106.677Zm-35.95525,25.8542H227.93761v22.00418H347.19953Zm.021,47.93229H227.8278v21.96147H347.2205Zm-95.821-143.728H227.81533V59.63379H251.3995Zm-.00935,47.9014H227.93647v21.97136h23.45368Z"/><path d="M112.96489,248.63c-.31527,5.96722.027,12.05843-1.07079,17.87808-3.12194,16.55045-17.63187,27.64665-34.49986,27.03681-16.27117-.58826-30.14533-12.767-31.72513-29.26552a164.41373,164.41373,0,0,1,.05656-31.70124c1.70721-17.22387,17.10927-29.54547,34.66249-28.96183a33.5536,33.5536,0,0,1,32.04793,31.16859c.30107,4.59132.04563,9.21915.04563,13.83021Z"/><path d="M157.83291,46.14988V68.22347h-4.05262c-13.10108.00008-26.20222-.02-39.30326.00558-14.83142.029-24.31952,9.48053-24.40054,24.32432-.04811,8.81406-.00881,17.6286-.00881,26.44292l1.09374.76445c2.63226-3.37644,5.26451-6.75288,7.72265-9.906l15.94359,15.99066c-11.899,11.893-24.11119,24.099-36.06182,36.04367L42.92472,126.0297c4.6973-4.70984,9.84421-9.87046,15.388-15.429l8.25049,8.89948.87056-.43486c.05726-1.29521.1507-2.59.166-3.88573.112-9.4768-.39537-19.00667.4297-28.42018a44.35763,44.35763,0,0,1,42.79365-40.84473c15.20125-.567,30.44045-.11871,45.66266-.11035A6.82244,6.82244,0,0,1,157.83291,46.14988Z"/><path d="M185.30641,328.25515q18.67538-18.679,36.71986-36.727l15.71145,15.73173-9.836,8.48894c11.17422,0,21.52363.87017,31.65088-.25624,9.25847-1.02977,16.21722-9.96735,16.82511-19.45466.43762-6.83032.19314-13.704.27108-20.55807.01519-1.33373.114-2.66653.18135-4.1568H298.359c.20319.22469.509.40487.50969.5862.0432,11.9199,1.718,23.97862-1.947,35.63908a45.11108,45.11108,0,0,1-42.88309,31.38325c-8.34635.087-16.69437.01453-25.89079.01453,3.71732,3.23025,6.91029,6.00486,9.83376,8.54525-6.165,6.14659-11.32992,11.29606-16.63742,16.58767-.50911-.47848-1.42879-1.29967-2.30065-2.16883C207.66518,350.56742,196.29368,339.21789,185.30641,328.25515Z"/><path d="M370.50769,85.11776H298.92805V13.57787Z"/><path class="cls-1" d="M347.19953,133.47705v22.00418H227.93761V133.47705Z"/><path class="cls-1" d="M347.2205,181.40934v21.96147H227.8278V181.40934Z"/><path class="cls-1" d="M251.3995,37.68137V59.63379H227.81533V37.68137Z"/><path class="cls-1" d="M251.39015,85.58277v21.97136H227.93647V85.58277Z"/></g></g></svg>